# xmcd
#
# Track frame offsets:
# 150
# 12700
# 27639
# 47965
# 57729
# 72045
# 87010
# 100979
# 114401
# 129427
#
# Disc length: 1925 seconds
#
#
# Revision: 0
# Processed by: cddbd v1.5.2PL0 Copyright (c) Steve Scherf et al.
# Submitted via: FreeRIP 2.945 
#
DISCID=8c07830a
DTITLE=Pat Cleary - Laid Back
DYEAR=2007
DGENRE=Classic Rock
TTITLE0=I'm a Believer
TTITLE1=The Gambler
TTITLE2=Cliffs of Dooneen
TTITLE3=Guess it Doesn't Matter Anymore
TTITLE4=Living in These Troubled Times
TTITLE5=The Ferryman
TTITLE6=Its A Heartache
TTITLE7=Words
TTITLE8=Darling
TTITLE9=If Tomorrow Never Comes
EXTD=
EXTT0=
EXTT1=
EXTT2=
EXTT3=
EXTT4=
EXTT5=
EXTT6=
EXTT7=
EXTT8=
EXTT9=
PLAYORDER=
